<?xml version="1.0" standalone="no"?>
<!DOCTYPE svg PUBLIC "-//W3C//DTD SVG 20010904//EN"
 "http://www.w3.org/TR/2001/REC-SVG-20010904/DTD/svg10.dtd">
<svg version="1.0" xmlns="http://www.w3.org/2000/svg"
 width="1254.000000pt" height="1254.000000pt" viewBox="0 0 1254.000000 1254.000000"
 preserveAspectRatio="xMidYMid meet">

<g transform="translate(0.000000,1254.000000) scale(0.100000,-0.100000)"
fill="#000000" stroke="none">
<path d="M0 6270 l0 -6270 6270 0 6270 0 0 6270 0 6270 -6270 0 -6270 0 0
-6270z m6615 3145 c557 -74 1077 -318 1505 -707 109 -99 146 -136 139 -141 -2
-1 -35 -10 -74 -20 -94 -24 -235 -93 -318 -157 -37 -29 -69 -51 -72 -49 -2 2
-27 40 -55 84 -63 95 -153 192 -235 250 -60 43 -218 125 -241 125 -18 0 -100
-165 -130 -266 -26 -82 -28 -102 -28 -254 0 -151 2 -173 27 -255 36 -120 95
-237 161 -323 l55 -71 -43 -93 c-120 -257 -174 -543 -163 -864 l6 -171 -72 38
c-134 69 -334 127 -498 144 l-65 6 -12 143 c-32 386 -136 750 -310 1091 -214
416 -525 766 -907 1019 -77 51 -173 111 -212 132 -40 21 -73 41 -73 44 0 12
234 113 380 164 214 75 439 123 670 146 129 12 419 4 565 -15z m-1678 -456
c762 -400 1264 -1117 1388 -1984 8 -60 16 -150 18 -200 l2 -90 -60 -7 c-81
-11 -205 -43 -276 -73 -32 -14 -60 -25 -63 -25 -2 0 -30 48 -61 108 -133 251
-316 493 -532 702 -380 370 -839 617 -1346 726 l-78 16 22 37 c76 128 297 388
445 523 174 159 387 318 426 318 10 0 62 -23 115 -51z m2439 -385 c157 -106
279 -279 330 -469 16 -57 19 -106 19 -267 l0 -197 23 22 c95 89 151 284 123
432 l-11 59 37 39 c118 122 320 216 465 217 l47 0 77 -107 c181 -255 296 -492
369 -758 39 -144 66 -299 100 -580 28 -236 49 -367 101 -635 41 -212 41 -261
-3 -324 -41 -58 -92 -80 -190 -84 -141 -7 -237 33 -451 185 -169 121 -277 184
-480 283 -200 98 -289 157 -374 249 -74 80 -125 171 -159 281 -41 135 -27 350
33 505 10 28 38 86 60 131 l41 81 -64 84 c-77 101 -137 214 -175 329 -25 77
-28 99 -28 235 -1 147 5 188 44 290 12 31 18 31 66 -1z m-3341 -639 c416 -106
765 -283 1080 -547 267 -224 457 -457 626 -766 l68 -125 -73 -68 c-40 -37 -85
-86 -100 -108 l-28 -40 -72 48 c-297 200 -707 361 -1125 441 -256 49 -392 62
-681 65 l-265 2 3 34 c7 72 44 268 68 364 51 205 146 454 247 648 l50 97 36
-6 c20 -4 95 -21 166 -39z m-60 -1275 c459 -39 877 -151 1240 -332 106 -53
280 -155 312 -182 2 -1 -7 -27 -18 -57 -12 -30 -27 -81 -33 -114 l-13 -60 -64
5 c-146 11 -474 4 -579 -14 -267 -44 -471 -104 -705 -209 -100 -44 -311 -159
-393 -213 l-53 -34 -14 32 c-40 97 -97 282 -129 419 -47 205 -65 346 -73 571
l-6 187 39 4 c82 8 374 6 489 -3z m3020 -373 c211 -74 395 -211 584 -437 103
-123 218 -286 209 -296 -13 -13 -265 -3 -392 16 -490 72 -864 230 -950 401
-68 138 3 274 171 330 85 28 279 21 378 -14z m-1553 -532 c10 -4 20 -22 23
-43 14 -89 39 -175 71 -248 19 -43 34 -80 34 -81 0 -1 -40 -23 -88 -47 -384
-199 -749 -559 -981 -969 l-32 -57 -79 71 c-236 215 -506 585 -629 864 -26 59
-37 46 119 140 343 206 707 333 1075 375 88 10 460 6 487 -5z m3492 -227 c-82
-279 -247 -590 -454 -858 -128 -165 -359 -385 -557 -530 l-42 -31 -54 73 c-70
95 -140 218 -184 321 -43 102 -86 248 -76 257 5 4 51 22 103 40 246 85 450
211 805 495 83 66 185 142 228 169 67 42 219 116 239 116 4 0 0 -24 -8 -52z
m-3181 -371 c51 -51 131 -121 179 -156 l87 -63 -48 -71 c-209 -312 -334 -630
-400 -1015 -10 -63 -22 -116 -25 -119 -21 -22 -408 132 -588 233 -115 64 -327
204 -347 228 -11 13 -3 33 54 128 190 318 463 605 753 792 61 40 230 135 240
136 2 0 44 -42 95 -93z m514 -336 c124 -49 216 -78 323 -100 100 -21 94 -4 65
-196 -33 -223 -22 -513 28 -763 l23 -113 -21 -4 c-124 -27 -485 -33 -675 -10
-127 15 -290 42 -297 48 -7 7 27 210 54 322 61 261 200 581 330 763 36 50 67
92 69 92 2 0 48 -17 101 -39z m1180 -241 c53 -166 142 -346 228 -465 36 -49
65 -92 65 -95 0 -9 -202 -117 -295 -158 -208 -91 -554 -197 -575 -176 -12 12
-47 189 -60 299 -20 181 -6 541 26 671 5 21 12 22 207 27 111 3 234 12 272 20
39 8 74 13 79 13 5 -1 29 -62 53 -136z"/>
<path d="M8214 7131 c-31 -13 -62 -58 -70 -98 -13 -69 38 -163 107 -199 33
-16 102 -19 130 -4 53 29 63 118 23 199 -40 80 -129 128 -190 102z"/>
</g>
</svg>
